<?xml version="1.0" encoding="UTF-8" standalone="no"?>
<svg
   width="200"
   height="200"
   viewBox="0 0 200 200"
   version="1.1"
   id="svg90"
   sodipodi:docname="logo.svg"
   inkscape:version="1.2.2 (b0a8486541, 2022-12-01)"
   inkscape:export-filename="logo.optimized.svg"
   inkscape:export-xdpi="96"
   inkscape:export-ydpi="96"
   xmlns:inkscape="http://www.inkscape.org/namespaces/inkscape"
   xmlns:sodipodi="http://sodipodi.sourceforge.net/DTD/sodipodi-0.dtd"
   xmlns:xlink="http://www.w3.org/1999/xlink"
   xmlns="http://www.w3.org/2000/svg"
   xmlns:svg="http://www.w3.org/2000/svg">
  <sodipodi:namedview
     id="namedview92"
     pagecolor="#ffffff"
     bordercolor="#666666"
     borderopacity="1.0"
     inkscape:showpageshadow="2"
     inkscape:pageopacity="0.0"
     inkscape:pagecheckerboard="0"
     inkscape:deskcolor="#d1d1d1"
     showgrid="false"
     inkscape:zoom="2"
     inkscape:cx="-110"
     inkscape:cy="88.75"
     inkscape:window-width="1872"
     inkscape:window-height="1130"
     inkscape:window-x="24"
     inkscape:window-y="24"
     inkscape:window-maximized="1"
     inkscape:current-layer="svg90" />
  <defs
     id="defs72">
    <linearGradient
       inkscape:collect="always"
       id="linearGradient3873">
      <stop
         style="stop-color:#4d90ed;stop-opacity:1;"
         offset="0"
         id="stop3869" />
      <stop
         style="stop-color:#08004a;stop-opacity:1;"
         offset="1"
         id="stop3871" />
    </linearGradient>
    <linearGradient
       inkscape:collect="always"
       id="linearGradient3867">
      <stop
         style="stop-color:#0e1622;stop-opacity:1;"
         offset="0"
         id="stop3863" />
      <stop
         style="stop-color:#263a5b;stop-opacity:1;"
         offset="1"
         id="stop3865" />
    </linearGradient>
    <radialGradient
       id="bgGradient"
       cx="50%"
       cy="50%"
       r="50%"
       fx="50%"
       fy="50%">
      <stop
         offset="0"
         stop-color="#2c3e50"
         id="stop64"
         style="stop-color:#6b6b6b;stop-opacity:1;" />
      <stop
         offset="1"
         stop-color="#1a1a1a"
         id="stop66" />
    </radialGradient>
    <clipPath
       id="circleClip">
      <circle
         cx="100"
         cy="100"
         r="90"
         id="circle69" />
    </clipPath>
    <linearGradient
       inkscape:collect="always"
       xlink:href="#linearGradient3867"
       id="linearGradient2254"
       x1="30.205206"
       y1="29.382446"
       x2="165.27084"
       y2="162.00003"
       gradientUnits="userSpaceOnUse" />
    <linearGradient
       inkscape:collect="always"
       xlink:href="#linearGradient3873"
       id="linearGradient3875"
       x1="-10.401189"
       y1="100.10094"
       x2="210.57244"
       y2="100.10094"
       gradientUnits="userSpaceOnUse" />
  </defs>
  <circle
     cx="100"
     cy="100"
     r="90"
     fill="url(#bgGradient)"
     id="circle76"
     style="fill-opacity:1;fill:url(#linearGradient2254)" />
  <g
     transform="rotate(45,100,100)"
     clip-path="url(#circleClip)"
     id="g88"
     inkscape:groupmode="layer">
    <path
       id="path78"
       style="color:#000000;fill:url(#linearGradient3875);fill-opacity:1;stroke:#3885bc;stroke-opacity:1;-inkscape-stroke:none"
       d="m -7.4995657,89.766287 c -1.1695429,1.22511 -2.1596301,2.62469 -2.9016233,4.108677 l 13.6836207,6.841806 c 0.1608855,-0.32177 0.1310403,-0.29953 0.1532985,-0.3715 -0.00796,0.016 0.7727925,-0.083 2.5135436,0.51099 3.673357,1.25344 9.8884082,5.06363 16.5645292,9.17582 6.676119,4.11218 13.945139,8.55358 21.960361,10.76266 2.381834,0.65646 4.943713,1.00113 7.546155,1.03856 4.720188,2.46568 9.844358,4.9752 15.271849,7.25061 18.499333,7.75565 40.093212,12.94396 56.090692,2.85052 7.50072,-4.7325 9.9796,-17.61832 12.16445,-20.27131 3.47056,-4.21418 8.37669,-3.61486 10.93806,-3.87804 3.68777,-0.37893 5.75167,0.41864 8.68829,1.82991 2.93662,1.41129 6.62724,4.08151 12.50834,4.36832 5.8811,0.28681 9.09378,-0.80275 15.42199,-5.98306 1.28533,-1.24649 3.29602,-2.80209 5.00814,-2.82145 0.84632,-0.17278 1.99519,-0.45785 1.78746,-0.42331 -0.20773,0.0345 2.7143,0.32924 4.70329,1.29372 0.99449,0.48223 -0.60165,-3.71531 0.9974,-3.11032 1.59906,0.60499 4.03996,1.52393 7.46606,0.43366 3.42609,-1.09028 5.77043,-4.448794 6.56836,-6.949536 0.79792,-2.500741 0.93774,-4.820707 0.93774,-7.732599 l -11.38414,0.0014 c 1.33638,-0.228224 2.04576,0.0197 1.82577,-0.06353 -0.26683,-0.100952 -1.21942,-0.56014 -2.46521,-1.164241 -1.86869,-0.906151 -4.62403,-2.315156 -8.18144,-2.579835 -1.18581,-0.08823 -2.46063,-0.0481 -3.82142,0.178158 -4.92721,0.819242 -9.24918,5.628994 -12.38541,9.882922 -3.09231,4.194356 -5.09828,3.784755 -5.7342,3.753743 -0.39171,-0.0191 -1.44364,-0.457708 -2.88091,-1.113141 -6.81069,-3.726657 -12.60571,-5.227076 -18.35715,-8.968655 -7.39311,-4.731086 -16.84081,-9.99729 -26.99297,-14.544044 -15.22824,-6.820133 -32.033703,-12.209636 -46.013044,-11.295755 -4.659781,0.304627 -9.005699,1.309926 -12.874315,3.195791 -5.79429,2.824588 -9.932021,8.963686 -16.633582,14.30234 -5.815945,4.633146 -13.347543,10.286548 -25.258352,9.997551 -3.180851,-0.07718 -5.608949,-2.90361 -8.525332,-3.898755 -3.4138873,-1.164906 -7.2208206,-1.943995 -11.39104841,-0.875597 -2.60639239,0.667748 -5.05001409,2.225649 -6.99925229,4.2675 z m 32.4109027,3.748218 c 9.876257,-1.856012 16.892045,-5.840274 22.254528,-10.112179 7.191147,-5.728673 11.639189,-11.759685 15.894711,-13.834158 13.14509,-6.40794 35.60907,-0.751602 55.499594,8.156587 6.21881,2.785164 12.1148,5.852178 17.48018,8.892697 -7.21458,-1.932718 -14.98818,-3.728715 -22.81524,-5.173481 -11.90562,-2.197608 -23.775691,-3.621523 -33.461898,-3.586633 -4.843104,0.01744 -9.13821,0.393759 -12.68649,1.273344 -3.548282,0.879587 -6.45091,2.243314 -8.193876,4.630721 -2.916509,3.994853 -7.949006,6.742566 -14.190473,8.826405 -4.58061,1.529328 -12.014863,4.624784 -15.482789,3.65377 -1.290718,-0.361398 -2.743424,-1.767511 -4.298247,-2.727073 z m 9.667475,5.910971 c 3.921665,-0.882965 7.778163,-1.840409 11.378619,-3.042493 6.618082,-2.209578 12.479806,-5.226278 16.155732,-10.261335 0.867557,-1.188324 2.860019,-2.350438 5.924782,-3.110165 3.064764,-0.759726 7.099544,-1.137861 11.739077,-1.154572 9.279066,-0.03342 20.982588,1.351843 32.723028,3.518961 10.80965,1.995309 21.58372,4.659637 30.67766,7.442575 -6.71703,1.053296 -14.26125,4.287613 -23.42153,10.632843 -9.23264,6.39535 -15.11245,7.76641 -18.87506,7.60554 -3.762609,-0.16087 -6.345256,-1.71901 -9.587372,-4.31998 -3.242116,-2.60097 -6.383773,-6.50497 -12.418563,-8.700729 -3.017395,-1.097878 -6.949712,-1.334213 -10.504403,-0.154679 -3.55469,1.179535 -6.630829,3.412938 -9.667475,6.449588 -2.968847,2.96885 -5.177375,3.08807 -10.163279,1.7139 -3.947662,-1.08801 -8.864413,-3.62981 -13.961216,-6.619454 z m 24.682446,21.577804 c 3.704158,-0.98508 7.254065,-2.84846 10.259954,-5.85435 1.963344,-1.96334 2.163088,-3.02609 3.668116,-2.74556 3.019054,0.56274 6.498448,4.63419 8.529476,6.26734 4.222161,3.38719 10.36992,7.32246 18.509076,7.67045 8.13914,0.34799 17.32992,-2.75647 28.24007,-10.31382 0.48168,-0.33365 0.92153,-0.60977 1.38521,-0.91841 -2.10366,5.49356 -4.17006,10.64625 -8.60543,13.4447 -14.06086,8.87155 -34.363653,4.4073 -52.410147,-3.1585 -3.309609,-1.38752 -6.487735,-2.88134 -9.576325,-4.3918 z"
       sodipodi:nodetypes="cccccssccsssssccsssssccssssssccssssssssccssccsssscsccsssscsssssssccssscscssccs" />
  </g>
</svg>
